HIERARCHY
ROOT Hips
{
    OFFSET   0.000000   0.000000   0.000000
    CHANNELS 6 Xposition Yposition Zposition Zrotation Xrotation Yrotation
    JOINT Chest
    {
        OFFSET   0.000000   8.007230   0.000000
        CHANNELS 3 Zrotation Xrotation Yrotation
        JOINT Chest2
        {
            OFFSET   0.000000  22.077100   0.000000
            CHANNELS 3 Zrotation Xrotation Yrotation
            JOINT Neck
            {
                OFFSET   0.000000  23.254800   0.000000
                CHANNELS 3 Zrotation Xrotation Yrotation
                JOINT Head
                {
                    OFFSET   0.000010  14.370000   1.956600
                    CHANNELS 3 Zrotation Xrotation Yrotation
                    End Site
                    {
                        OFFSET   0.000000  19.566000   0.000000
                    }
                }
            }
            JOINT LeftCollar
            {
                OFFSET   3.911900  19.017000  -0.467062
                CHANNELS 3 Zrotation Xrotation Yrotation
                JOINT LeftShoulder
                {
                    OFFSET  10.383700   0.000000   0.000000
                    CHANNELS 3 Zrotation Xrotation Yrotation
                    JOINT LeftElbow
                    {
                        OFFSET  26.662100   0.001193   0.000835
                        CHANNELS 3 Zrotation Xrotation Yrotation
                        JOINT LeftWrist
                        {
                            OFFSET  28.869000  -0.000058  -0.000075
                            CHANNELS 3 Zrotation Xrotation Yrotation
                            JOINT LeftFinger0
                            {
                                OFFSET   2.044660  -2.323460   3.252850
                                CHANNELS 3 Zrotation Xrotation Yrotation
                                JOINT LeftFinger01
                                {
                                    OFFSET   3.088130   0.000000   0.000000
                                    CHANNELS 3 Zrotation Xrotation Yrotation
                                    JOINT LeftFinger02
                                    {
                                        OFFSET   2.639450   0.000000   0.000000
                                        CHANNELS 3 Zrotation Xrotation Yrotation
                                        End Site
                                        {
                                            OFFSET   2.582190   0.000000   0.000000
                                        }
                                    }
                                }
                            }
                            JOINT LeftFinger1
                            {
                                OFFSET   8.364480   0.000000   3.252850
                                CHANNELS 3 Zrotation Xrotation Yrotation
                                JOINT LeftFinger11
                                {
                                    OFFSET   4.646920   0.000000   0.000000
                                    CHANNELS 3 Zrotation Xrotation Yrotation
                                    JOINT LeftFinger12
                                    {
                                        OFFSET   2.323460   0.000000   0.000000
                                        CHANNELS 3 Zrotation Xrotation Yrotation
                                        End Site
                                        {
                                            OFFSET   2.273050   0.000000   0.000000
                                        }
                                    }
                                }
                            }
                            JOINT LeftFinger2
                            {
                                OFFSET   8.364490   0.000016   1.078090
                                CHANNELS 3 Zrotation Xrotation Yrotation
                                JOINT LeftFinger21
                                {
                                    OFFSET   5.111620   0.000000   0.000000
                                    CHANNELS 3 Zrotation Xrotation Yrotation
                                    JOINT LeftFinger22
                                    {
                                        OFFSET   2.788150   0.000012   0.000000
                                        CHANNELS 3 Zrotation Xrotation Yrotation
                                        End Site
                                        {
                                            OFFSET   2.727660   0.000000   0.000000
                                        }
                                    }
                                }
                            }
                            JOINT LeftFinger3
                            {
                                OFFSET   7.899780   0.000014  -1.078090
                                CHANNELS 3 Zrotation Xrotation Yrotation
                                JOINT LeftFinger31
                                {
                                    OFFSET   4.646930   0.000000   0.000000
                                    CHANNELS 3 Zrotation Xrotation Yrotation
                                    JOINT LeftFinger32
                                    {
                                        OFFSET   2.323470   0.000000   0.000000
                                        CHANNELS 3 Zrotation Xrotation Yrotation
                                        End Site
                                        {
                                            OFFSET   2.273050   0.000000   0.000000
                                        }
                                    }
                                }
                            }
                            JOINT LeftFinger4
                            {
                                OFFSET   7.435090   0.000000  -3.252850
                                CHANNELS 3 Zrotation Xrotation Yrotation
                                JOINT LeftFinger41
                                {
                                    OFFSET   3.717550   0.000000   0.000000
                                    CHANNELS 3 Zrotation Xrotation Yrotation
                                    JOINT LeftFinger42
                                    {
                                        OFFSET   1.858770   0.000000   0.000000
                                        CHANNELS 3 Zrotation Xrotation Yrotation
                                        End Site
                                        {
                                            OFFSET   1.818440   0.000000   0.000000
                                        }
                                    }
                                }
                            }
                        }
                    }
                }
            }
            JOINT RightCollar
            {
                OFFSET  -3.911900  19.017000  -0.467063
                CHANNELS 3 Zrotation Xrotation Yrotation
                JOINT RightShoulder
                {
                    OFFSET -10.383700   0.000023   0.000000
                    CHANNELS 3 Zrotation Xrotation Yrotation
                    JOINT RightElbow
                    {
                        OFFSET -26.662100   0.001246   0.001011
                        CHANNELS 3 Zrotation Xrotation Yrotation
                        JOINT RightWrist
                        {
                            OFFSET -28.869000  -0.000026  -0.000078
                            CHANNELS 3 Zrotation Xrotation Yrotation
                            JOINT RightFinger0
                            {
                                OFFSET  -2.044660  -2.323490   3.252850
                                CHANNELS 3 Zrotation Xrotation Yrotation
                                JOINT RightFinger01
                                {
                                    OFFSET  -3.088130   0.000000   0.000000
                                    CHANNELS 3 Zrotation Xrotation Yrotation
                                    JOINT RightFinger02
                                    {
                                        OFFSET  -2.639460   0.000000   0.000000
                                        CHANNELS 3 Zrotation Xrotation Yrotation
                                        End Site
                                        {
                                            OFFSET  -2.582190   0.000000   0.000000
                                        }
                                    }
                                }
                            }
                            JOINT RightFinger1
                            {
                                OFFSET  -8.364480   0.000000   3.252850
                                CHANNELS 3 Zrotation Xrotation Yrotation
                                JOINT RightFinger11
                                {
                                    OFFSET  -4.646920   0.000000   0.000000
                                    CHANNELS 3 Zrotation Xrotation Yrotation
                                    JOINT RightFinger12
                                    {
                                        OFFSET  -2.323470   0.000000   0.000000
                                        CHANNELS 3 Zrotation Xrotation Yrotation
                                        End Site
                                        {
                                            OFFSET  -2.273050   0.000000   0.000000
                                        }
                                    }
                                }
                            }
                            JOINT RightFinger2
                            {
                                OFFSET  -8.364480   0.000000   1.078090
                                CHANNELS 3 Zrotation Xrotation Yrotation
                                JOINT RightFinger21
                                {
                                    OFFSET  -5.111620   0.000000   0.000000
                                    CHANNELS 3 Zrotation Xrotation Yrotation
                                    JOINT RightFinger22
                                    {
                                        OFFSET  -2.788160   0.000000   0.000000
                                        CHANNELS 3 Zrotation Xrotation Yrotation
                                        End Site
                                        {
                                            OFFSET  -2.727660   0.000000   0.000000
                                        }
                                    }
                                }
                            }
                            JOINT RightFinger3
                            {
                                OFFSET  -7.899780   0.000000  -1.078090
                                CHANNELS 3 Zrotation Xrotation Yrotation
                                JOINT RightFinger31
                                {
                                    OFFSET  -4.646930   0.000000   0.000000
                                    CHANNELS 3 Zrotation Xrotation Yrotation
                                    JOINT RightFinger32
                                    {
                                        OFFSET  -2.323470   0.000000   0.000000
                                        CHANNELS 3 Zrotation Xrotation Yrotation
                                        End Site
                                        {
                                            OFFSET  -2.273050   0.000000   0.000000
                                        }
                                    }
                                }
                            }
                            JOINT RightFinger4
                            {
                                OFFSET  -7.435090   0.000000  -3.252850
                                CHANNELS 3 Zrotation Xrotation Yrotation
                                JOINT RightFinger41
                                {
                                    OFFSET  -3.717550   0.000000   0.000000
                                    CHANNELS 3 Zrotation Xrotation Yrotation
                                    JOINT RightFinger42
                                    {
                                        OFFSET  -1.858760   0.000000   0.000000
                                        CHANNELS 3 Zrotation Xrotation Yrotation
                                        End Site
                                        {
                                            OFFSET  -1.818440   0.000000   0.000000
                                        }
                                    }
                                }
                            }
                        }
                    }
                }
            }
        }
    }
    JOINT LeftHip
    {
        OFFSET   9.783010   0.000000   0.000000
        CHANNELS 3 Zrotation Xrotation Yrotation
        JOINT LeftKnee
        {
            OFFSET   0.000073 -41.789100   0.001749
            CHANNELS 3 Zrotation Xrotation Yrotation
            JOINT LeftAnkle
            {
                OFFSET   0.000111 -41.133200  -0.000179
                CHANNELS 3 Zrotation Xrotation Yrotation
                JOINT LeftToe
                {
                    OFFSET   0.000000  -6.358960  14.674500
                    CHANNELS 3 Zrotation Xrotation Yrotation
                    End Site
                    {
                        OFFSET   0.000000   0.000000   3.913200
                    }
                }
            }
        }
    }
    JOINT RightHip
    {
        OFFSET  -9.783010   0.000000   0.000000
        CHANNELS 3 Zrotation Xrotation Yrotation
        JOINT RightKnee
        {
            OFFSET   0.000424 -41.789200   0.005205
            CHANNELS 3 Zrotation Xrotation Yrotation
            JOINT RightAnkle
            {
                OFFSET   0.000000 -41.133200  -0.000155
                CHANNELS 3 Zrotation Xrotation Yrotation
                JOINT RightToe
                {
                    OFFSET   0.000000  -6.358960  14.674500
                    CHANNELS 3 Zrotation Xrotation Yrotation
                    End Site
                    {
                        OFFSET   0.000000   0.000000   3.913200
                    }
                }
            }
        }
    }
}
MOTION
Frames: 4
Frame Time:   0.016667
 -0.929507  89.894800  -2.894160  -1.030910  -9.948370  -0.145188   0.713201   6.817420   0.233088   1.413530  13.637200   0.383861   1.486520  -3.498180   0.091510   2.465360  -7.079090   7.360090  -6.481890  -4.242060   1.845180 -36.731200  29.169700 -40.469400  -8.406540  -0.671787 -114.798000 -63.376900 -59.196000 -38.986800 116.302000  76.079900 -149.860000 -79.769700  -0.001448  -0.000232 -46.466700  -0.004260  -0.002240 -88.995700   5.001610  -0.093246 -82.395000  -0.005854  -0.001999 -61.796300   0.005100   0.000346 -83.777900  -0.002014  -0.002356 -83.777800  -0.006262  -0.002343 -62.833400   0.004558  -0.007559 -86.910100  -4.993800   0.269180 -86.921900  -0.006290  -0.000805 -65.191400   0.003572  -0.007605 -88.984800  -9.997940   0.183537 -110.000000  -0.002495   0.000034 -80.000000  -0.000882  -0.003625   8.409230  -3.836620  10.936300  41.517400  26.033300  28.464900   3.719150 -13.007200 116.782000  42.038700 -48.162400  37.211300 -16.010000  38.355400  50.009100  81.112100   0.001284  -0.007886  47.360700   0.001643   0.000099  88.996200   5.003760   0.087484  81.626900   0.004111   0.002970  61.220200   0.002768   0.004939  86.652400  -0.002209   0.011219  86.652400   0.003878   0.002238  64.989300   0.002306   0.000674  83.061500  -4.962520  -0.602389  83.087500   0.002953   0.008882  62.315600   0.006750   0.000425  88.989200  -9.998710  -0.175929 110.000000  -0.002075  -0.007144  79.993200  -0.005673   0.004906   1.879580   9.026980   2.388830   0.571032   2.940460  10.412700  -5.222600  -3.505630   3.005090   0.000000   0.000000   0.000000   1.454230   8.494420  -8.102430  -1.034410   4.613890 -11.818500  -5.224410  -0.553853   1.926580   0.000000   0.000000   0.000000
 -0.930017  89.895600  -2.901260  -1.040410  -9.931770  -0.201302   0.704785   6.810000   0.244359   1.395030  13.622500   0.408011   1.485680  -3.467210   0.090860   2.468350  -7.016320   7.325070  -6.479890  -4.253450   1.806520 -36.703500  29.121800 -40.477000  -8.412300  -0.759837 -114.751000 -63.469100 -59.262400 -39.063300 115.996000  76.106700 -149.540000 -79.778100  -0.001344  -0.000227 -46.472300  -0.004397  -0.002107 -88.995700   5.001580  -0.093300 -82.379100  -0.006099  -0.001948 -61.784300   0.005116   0.000283 -83.813700  -0.001957  -0.002214 -83.813700  -0.006521  -0.002270 -62.860300   0.004554  -0.007853 -86.962700  -4.994270   0.264577 -86.974300  -0.006519  -0.000851 -65.230700   0.003557  -0.007883 -88.984600  -9.997940   0.183681 -110.000000  -0.002438   0.000000 -80.000000  -0.000872  -0.003541   8.411290  -3.837290  10.935200  41.497600  26.012400  28.515100   3.706970 -13.059000 116.712000  42.076200 -48.230800  37.281800 -16.012000  38.328800  49.838500  81.080700   0.001278  -0.007864  47.339600   0.001583   0.000061  88.996200   5.003690   0.087483  81.525200   0.004046   0.002827  61.143900   0.002623   0.005188  86.684500  -0.002088   0.011362  86.684500   0.003771   0.002128  65.013400   0.002177   0.000821  83.045300  -4.962620  -0.601230  83.071100   0.002855   0.009037  62.303400   0.006812   0.000589  88.989300  -9.998590  -0.175921 110.000000  -0.001962  -0.007167  79.993100  -0.005701   0.004916   1.872200   9.001740   2.393190   0.568634   2.954150  10.432400  -5.210230  -3.514140   3.040810  -0.000000   0.000000   0.000000   1.450100   8.468760  -8.097750  -1.047060   4.610530 -11.789400  -5.221900  -0.545387   1.953100  -0.000000   0.000000   0.000000
 -0.930223  89.895600  -2.911060  -1.051280  -9.916290  -0.265609   0.697200   6.801110   0.258692   1.377950  13.604800   0.438011   1.484620  -3.431510   0.090051   2.474780  -6.943950   7.290730  -6.471720  -4.252550   1.778410 -36.760400  29.075200 -40.501600  -8.369010  -0.818360 -114.666000 -63.600500 -59.327000 -39.211800 115.786000  76.128100 -149.349000 -79.773000  -0.001255  -0.000230 -46.468900  -0.004535  -0.001978 -88.995700   5.001560  -0.093361 -82.393300  -0.006339  -0.001900 -61.794900   0.005138   0.000213 -83.851000  -0.001896  -0.002075 -83.851000  -0.006765  -0.002203 -62.888300   0.004549  -0.008148 -87.015300  -4.994740   0.260095 -87.026700  -0.006745  -0.000902 -65.269900   0.003541  -0.008163 -88.984500  -9.997940   0.183822 -110.000000  -0.002377  -0.000000 -80.000000  -0.000836  -0.003461   8.408940  -3.833100  10.930200  41.494700  25.984400  28.564600   3.675910 -13.108400 116.624000  42.215400 -48.274900  37.398900 -16.045600  38.417900  49.753900  81.057100   0.001264  -0.007742  47.323900   0.001524   0.000032  88.996200   5.003620   0.087484  81.482500   0.003988   0.002696  61.111900   0.002480   0.005443  86.659900  -0.001969   0.011492  86.659900   0.003675   0.002015  64.994900   0.002053   0.000967  83.047700  -4.962710  -0.600170  83.073400   0.002755   0.009196  62.305100   0.006871   0.000741  88.989400  -9.998450  -0.175918 110.000000  -0.001850  -0.007181  79.993100  -0.005736   0.004918   1.864920   8.979900   2.403590   0.568525   2.967650  10.437300  -5.199290  -3.525170   3.091060   0.000000   0.000000   0.000000   1.452710   8.433030  -8.098340  -1.060660   4.621480 -11.764800  -5.221150  -0.537627   1.990390  -0.000000   0.000000   0.000000
 -0.930253  89.895600  -2.922740  -1.062550  -9.903730  -0.332024   0.690559   6.794200   0.274134   1.362650  13.591200   0.470119   1.483740  -3.395060   0.089137   2.480170  -6.870150   7.256150  -6.462470  -4.245840   1.752070 -36.843600  29.018900 -40.542300  -8.289630  -0.862446 -114.564000 -63.703000 -59.385200 -39.352400 115.605000  76.141200 -149.185000 -79.763500  -0.001172  -0.000238 -46.462500  -0.004676  -0.001854 -88.995700   5.001530  -0.093418 -82.407500  -0.006579  -0.001853 -61.805600   0.005161   0.000139 -83.872100  -0.001838  -0.001934 -83.872100  -0.007012  -0.002138 -62.904100   0.004545  -0.008444 -87.058400  -4.995200   0.256426 -87.069600  -0.006970  -0.000957 -65.302100   0.003525  -0.008443 -88.984400  -9.997940   0.183956 -110.000000  -0.002315  -0.000000 -80.000000  -0.000795  -0.003383   8.405550  -3.828950  10.922400  41.501200  25.962100  28.613100   3.639160 -13.168400 116.532000  42.380400 -48.309200  37.528200 -16.069700  38.551500  49.686900  81.034600   0.001247  -0.007582  47.309000   0.001466   0.000000  88.996200   5.003550   0.087486  81.448600   0.003930   0.002568  61.086500   0.002340   0.005699  86.604800  -0.001851   0.011617  86.604800   0.003578   0.001899  64.953600   0.001932   0.001113  83.061800  -4.962790  -0.599241  83.087400   0.002659   0.009355  62.315700   0.006931   0.000895  88.989500  -9.998320  -0.175915 110.000000  -0.001738  -0.007192  79.993000  -0.005769   0.004918   1.860890   8.961430   2.410670   0.567730   2.981180  10.440700  -5.189270  -3.536730   3.145860   0.000000   0.000000   0.000000   1.457160   8.394200  -8.101960  -1.074660   4.640930 -11.736500  -5.219890  -0.531218   2.028920   0.000000   0.000000   0.000000
